<?xml version="1.0" standalone="no"?>
<!DOCTYPE svg PUBLIC "-//W3C//DTD SVG 20010904//EN"
 "http://www.w3.org/TR/2001/REC-SVG-20010904/DTD/svg10.dtd">
<svg version="1.0" xmlns="http://www.w3.org/2000/svg"
 width="500.000000pt" height="500.000000pt" viewBox="0 0 500.000000 500.000000"
 preserveAspectRatio="xMidYMid meet">
<metadata>
Created by potrace 1.16, written by Peter Selinger 2001-2019
</metadata>
<g transform="translate(0.000000,500.000000) scale(0.100000,-0.100000)"
fill="#fff" stroke="#fff" stroke-width="130">
<path d="M3881 4833 c-22 -23 -37 -64 -79 -223 -29 -107 -52 -209 -52 -225 0
-41 23 -71 64 -85 38 -12 71 -3 100 29 27 30 129 416 121 458 -13 71 -103 97
-154 46z"/>
<path d="M2575 4616 c-28 -12 -64 -36 -80 -53 -17 -16 -176 -216 -354 -444
-179 -228 -377 -480 -440 -560 -64 -80 -209 -265 -323 -410 l-206 -264 -329
-190 c-180 -104 -366 -211 -413 -238 -205 -118 -283 -194 -355 -342 -133 -271
-84 -565 130 -781 89 -90 151 -129 270 -170 72 -25 93 -28 210 -28 104 0 142
5 192 21 l62 21 72 -127 c179 -312 404 -699 427 -734 116 -173 334 -231 514
-135 111 59 182 163 201 295 14 92 -5 164 -73 283 -26 47 -96 168 -154 270
-58 101 -105 189 -103 194 2 5 57 40 123 78 195 112 200 128 98 305 -37 63
-65 115 -63 117 5 5 278 59 854 170 242 47 566 110 720 140 154 30 298 58 320
62 172 30 288 221 231 380 -8 22 -89 169 -180 328 l-167 289 99 151 c117 178
122 187 122 221 0 15 -46 106 -107 212 -123 214 -137 227 -223 219 -30 -3
-120 -8 -200 -12 l-146 -7 -179 314 c-99 173 -197 333 -218 356 -85 92 -222
121 -332 69z m160 -178 c30 -13 38 -27 411 -673 136 -236 331 -574 432 -750
327 -564 352 -610 352 -630 0 -32 -37 -84 -64 -91 -14 -3 -40 -7 -58 -7 -37
-2 -7 -51 -478 768 -118 204 -302 523 -410 710 -108 187 -229 397 -269 467
l-73 126 18 27 c20 31 70 65 96 65 9 0 29 -5 43 -12z m-172 -445 c550 -949
1007 -1747 1002 -1751 -5 -5 -1440 -292 -1613 -322 -62 -11 -75 -11 -86 1 -7
8 -59 95 -116 194 -57 99 -168 292 -247 428 -79 137 -143 253 -143 257 0 8
102 140 351 455 73 94 269 343 434 553 164 210 300 382 301 382 2 0 54 -89
117 -197z m1140 -410 l67 -116 -57 -89 c-32 -48 -60 -88 -63 -88 -8 0 -223
376 -221 387 0 4 38 11 83 14 46 3 92 6 103 7 16 1 35 -24 88 -115z m-2427
-1036 c137 -236 406 -706 407 -712 2 -7 -674 -401 -773 -450 -91 -46 -156 -59
-259 -52 -204 13 -374 147 -432 339 -28 90 -23 233 10 318 26 69 94 159 152
204 48 37 798 475 814 475 6 0 42 -55 81 -122z m558 -967 c25 -44 46 -82 46
-84 0 -5 -129 -82 -153 -92 -21 -8 -115 156 -96 167 8 4 43 26 79 48 36 21 68
40 71 40 4 1 27 -35 53 -79z m-149 -521 c286 -497 277 -479 272 -551 -10 -174
-235 -244 -341 -106 -34 46 -316 538 -308 538 4 0 2 4 -4 8 -12 7 -184 298
-187 315 -2 10 310 196 328 196 6 0 114 -180 240 -400z"/>
<path d="M1219 1999 c-38 -41 -38 -79 0 -121 73 -82 198 -3 156 99 -26 62
-107 74 -156 22z"/>
<path d="M820 1780 c-131 -75 -151 -76 -220 -15 -42 37 -58 45 -89 45 -49 0
-91 -44 -91 -95 0 -76 121 -177 226 -191 77 -9 133 8 258 79 117 67 140 90
140 145 0 43 -49 92 -92 92 -15 0 -74 -27 -132 -60z"/>
<path d="M4773 4389 c-65 -34 -143 -76 -173 -94 -30 -17 -111 -63 -178 -100
-120 -65 -162 -103 -162 -143 0 -31 33 -81 61 -92 40 -17 66 -8 210 72 70 39
131 70 135 68 4 -1 10 3 13 8 3 5 68 44 144 87 75 42 147 89 158 104 39 49 4
129 -63 145 -22 5 -53 -7 -145 -55z"/>
</g>
</svg>
